<svg width="14" height="14" viewBox="0 0 14 14" fill="none" xmlns="http://www.w3.org/2000/svg">
<path d="M8.13167 2.91667L11.0833 5.86833L5.28617 11.6667C5.12468 11.8282 4.9238 11.9449 4.70342 12.005L1.71909 12.8187C1.64471 12.8389 1.56631 12.8391 1.49185 12.8193C1.41738 12.7994 1.34947 12.7602 1.29501 12.7057C1.24054 12.6512 1.20144 12.5832 1.18167 12.5087C1.1619 12.4342 1.16216 12.3559 1.18242 12.2815L1.99617 9.29717C2.05631 9.07678 2.17293 8.87591 2.3345 8.71442L8.1305 2.91667H8.13167ZM12.2675 1.7325C12.6589 2.12392 12.8788 2.65479 12.8788 3.20833C12.8788 3.76188 12.6589 4.29275 12.2675 4.68417L11.7017 5.25L8.75 2.29833L9.31584 1.7325C9.70726 1.34109 10.2381 1.1212 10.7917 1.1212C11.3452 1.1212 11.8761 1.34109 12.2675 1.7325Z" fill="black"/>
</svg>
